<svg width="16" height="16" viewBox="0 0 16 16" fill="none" xmlns="http://www.w3.org/2000/svg">
<g clip-path="url(#clip0_10_32)">
<path d="M5 2H4.2C3.0799 2 2.51984 2 2.09202 2.21799C1.71569 2.40973 1.40973 2.71569 1.21799 3.09202C1 3.51984 1 4.0799 1 5.2V7M5 2H11M5 2V1M5 2V4M11 2H11.8C12.9201 2 13.4802 2 13.908 2.21799C14.2843 2.40973 14.5903 2.71569 14.782 3.09202C15 3.51984 15 4.0799 15 5.2V7M11 2V1M11 2V4M15 7V11.8C15 12.9201 15 13.4802 14.782 13.908C14.5903 14.2843 14.2843 14.5903 13.908 14.782C13.4802 15 12.9201 15 11.8 15H4.2C3.0799 15 2.51984 15 2.09202 14.782C1.71569 14.5903 1.40973 14.2843 1.21799 13.908C1 13.4802 1 12.9201 1 11.8V7M15 7H1" stroke="black" stroke-linecap="round"/>
</g>
<defs>
<clipPath id="clip0_10_32">
<rect width="16" height="16" fill="white"/>
</clipPath>
</defs>
</svg>
