<svg width="26" height="32" viewBox="0 0 26 32" fill="none" xmlns="http://www.w3.org/2000/svg">
<path d="M8.55422 18.6163C8.15824 18.2314 7.52513 18.2403 7.14015 18.6363C6.75516 19.0322 6.76408 19.6653 7.16006 20.0503L8.55422 18.6163ZM11.2857 22.6667L10.5886 23.3837C10.9768 23.761 11.5947 23.761 11.9828 23.3837L11.2857 22.6667ZM18.8399 16.717C19.2359 16.332 19.2448 15.6989 18.8599 15.3029C18.4749 14.9069 17.8418 14.898 17.4458 15.283L18.8399 16.717ZM24 7.66667V27.6667H26V7.66667H24ZM21.5714 30H4.42857V32H21.5714V30ZM2 27.6667V7.66667H0V27.6667H2ZM4.42857 5.33333H7.85714V3.33333H4.42857V5.33333ZM18.1429 5.33333H21.5714V3.33333H18.1429V5.33333ZM4.42857 30C3.06057 30 2 28.929 2 27.6667H0C0 30.0863 2.00948 32 4.42857 32V30ZM24 27.6667C24 28.929 22.9394 30 21.5714 30V32C23.9905 32 26 30.0863 26 27.6667H24ZM26 7.66667C26 5.24706 23.9905 3.33333 21.5714 3.33333V5.33333C22.9394 5.33333 24 6.40437 24 7.66667H26ZM2 7.66667C2 6.40437 3.06057 5.33333 4.42857 5.33333V3.33333C2.00948 3.33333 0 5.24706 0 7.66667H2ZM7.16006 20.0503L10.5886 23.3837L11.9828 21.9497L8.55422 18.6163L7.16006 20.0503ZM11.9828 23.3837L18.8399 16.717L17.4458 15.283L10.5886 21.9497L11.9828 23.3837ZM11.2857 2H14.7143V0H11.2857V2ZM14.7143 6.66667H11.2857V8.66667H14.7143V6.66667ZM11.2857 6.66667C9.91771 6.66667 8.85714 5.59563 8.85714 4.33333H6.85714C6.85714 6.75294 8.86662 8.66667 11.2857 8.66667V6.66667ZM17.1429 4.33333C17.1429 5.59563 16.0823 6.66667 14.7143 6.66667V8.66667C17.1334 8.66667 19.1429 6.75294 19.1429 4.33333H17.1429ZM14.7143 2C16.0823 2 17.1429 3.07104 17.1429 4.33333H19.1429C19.1429 1.91373 17.1334 0 14.7143 0V2ZM11.2857 0C8.86662 0 6.85714 1.91373 6.85714 4.33333H8.85714C8.85714 3.07104 9.91771 2 11.2857 2V0Z" fill="#111827"/>
</svg>
