<svg width="16" height="16" viewBox="0 0 16 16" fill="none" xmlns="http://www.w3.org/2000/svg">
<path fill-rule="evenodd" clip-rule="evenodd" d="M6.05 14C5.19755 14 4.60331 13.9994 4.14068 13.9616C3.6868 13.9245 3.42604 13.8554 3.22852 13.7548C2.80516 13.539 2.46095 13.1948 2.24524 12.7715C2.1446 12.574 2.07547 12.3132 2.03838 11.8593C2.00058 11.3967 2 10.8025 2 9.95V6.05C2 5.19754 2.00058 4.60331 2.03838 4.14068C2.07547 3.6868 2.1446 3.42604 2.24524 3.22852C2.46095 2.80516 2.80516 2.46095 3.22852 2.24523C3.42604 2.14459 3.6868 2.07546 4.14068 2.03838C4.60331 2.00058 5.19755 2 6.05 2H8.75C9.57843 2 10.25 2.67157 10.25 3.5V3.875C10.25 4.28921 10.5858 4.625 11 4.625C11.4142 4.625 11.75 4.28921 11.75 3.875V3.5C11.75 1.84314 10.4069 0.499998 8.75 0.499998H6.05H6.01788C5.20505 0.499991 4.54944 0.499985 4.01853 0.543362C3.47189 0.588023 2.99175 0.682383 2.54754 0.908724C1.84193 1.26825 1.26825 1.84193 0.908726 2.54753C0.682385 2.99175 0.588025 3.47189 0.543364 4.01853C0.499987 4.54944 0.499993 5.20504 0.5 6.01787V6.05V9.95V9.98212C0.499993 10.795 0.499987 11.4506 0.543364 11.9815C0.588025 12.5281 0.682385 13.0082 0.908726 13.4525C1.26825 14.1581 1.84193 14.7317 2.54754 15.0913C2.99175 15.3176 3.47189 15.412 4.01853 15.4566C4.54944 15.5 5.20506 15.5 6.0179 15.5H6.05H6.875C7.28921 15.5 7.625 15.1642 7.625 14.75C7.625 14.3358 7.28921 14 6.875 14H6.05ZM15.2833 7.02739C15.5745 6.73288 15.5719 6.25802 15.2774 5.96675C14.9829 5.67548 14.508 5.6781 14.2167 5.97261L9.52331 10.7182L7.74696 9.14661C7.43674 8.87215 6.96275 8.90114 6.68828 9.21137C6.41382 9.5216 6.44281 9.99558 6.75304 10.27L9.06073 12.3117C9.35884 12.5755 9.81105 12.5604 10.0909 12.2774L15.2833 7.02739Z" fill="#000000"/>
</svg>
